<svg xmlns="http://www.w3.org/2000/svg" xmlns:xlink="http://www.w3.org/1999/xlink" width="500" zoomAndPan="magnify" viewBox="0 0 375 374.999991" height="500" preserveAspectRatio="xMidYMid meet" version="1.0"><defs><g/><clipPath id="f2978aea38"><path d="M 17.460938 17.460938 L 357.539062 17.460938 L 357.539062 357.539062 L 17.460938 357.539062 Z M 17.460938 17.460938 " clip-rule="nonzero"/></clipPath><clipPath id="ed491c14f5"><path d="M 187.5 17.460938 C 93.589844 17.460938 17.460938 93.589844 17.460938 187.5 C 17.460938 281.410156 93.589844 357.539062 187.5 357.539062 C 281.410156 357.539062 357.539062 281.410156 357.539062 187.5 C 357.539062 93.589844 281.410156 17.460938 187.5 17.460938 " clip-rule="nonzero"/></clipPath><clipPath id="f27acebfbe"><path d="M 196 159 L 271 159 L 271 271.042969 L 196 271.042969 Z M 196 159 " clip-rule="nonzero"/></clipPath><clipPath id="85c6734b77"><path d="M 104 159 L 179 159 L 179 271.042969 L 104 271.042969 Z M 104 159 " clip-rule="nonzero"/></clipPath></defs><g clip-path="url(#f2978aea38)"><g clip-path="url(#ed491c14f5)"><path fill="#ffffff" d="M 17.460938 17.460938 L 357.539062 17.460938 L 357.539062 357.539062 L 17.460938 357.539062 Z M 17.460938 17.460938 " fill-opacity="1" fill-rule="nonzero"/></g></g><path fill="#1893f8" d="M 187.164062 248.941406 C 187.164062 248.941406 213.964844 127.121094 224.6875 109.769531 C 189.539062 156.953125 184.789062 156.953125 150.214844 109.769531 C 160.359375 127.085938 187.164062 248.941406 187.164062 248.941406 Z M 187.164062 248.941406 " fill-opacity="1" fill-rule="nonzero"/><path fill="#1893f8" d="M 199.070312 124.089844 C 199.070312 124.875 198.996094 125.652344 198.84375 126.421875 C 198.691406 127.1875 198.464844 127.9375 198.164062 128.660156 C 197.867188 129.386719 197.5 130.074219 197.066406 130.726562 C 196.628906 131.375 196.136719 131.980469 195.582031 132.535156 C 195.03125 133.089844 194.429688 133.582031 193.777344 134.019531 C 193.128906 134.453125 192.441406 134.824219 191.71875 135.121094 C 190.996094 135.421875 190.253906 135.648438 189.488281 135.800781 C 188.71875 135.953125 187.945312 136.03125 187.164062 136.03125 C 186.382812 136.03125 185.605469 135.953125 184.839844 135.800781 C 184.074219 135.648438 183.328125 135.421875 182.605469 135.121094 C 181.882812 134.824219 181.199219 134.453125 180.546875 134.019531 C 179.898438 133.582031 179.296875 133.089844 178.742188 132.535156 C 178.191406 131.980469 177.695312 131.375 177.261719 130.726562 C 176.828125 130.074219 176.460938 129.386719 176.160156 128.660156 C 175.863281 127.9375 175.636719 127.1875 175.484375 126.421875 C 175.332031 125.652344 175.253906 124.875 175.253906 124.089844 C 175.253906 123.308594 175.332031 122.53125 175.484375 121.761719 C 175.636719 120.992188 175.863281 120.246094 176.160156 119.523438 C 176.460938 118.796875 176.828125 118.109375 177.261719 117.457031 C 177.695312 116.804688 178.191406 116.203125 178.742188 115.648438 C 179.296875 115.09375 179.898438 114.597656 180.546875 114.164062 C 181.199219 113.726562 181.882812 113.359375 182.605469 113.058594 C 183.328125 112.757812 184.074219 112.53125 184.839844 112.378906 C 185.605469 112.226562 186.382812 112.152344 187.164062 112.152344 C 187.945312 112.152344 188.71875 112.226562 189.488281 112.378906 C 190.253906 112.53125 190.996094 112.757812 191.71875 113.058594 C 192.441406 113.359375 193.128906 113.726562 193.777344 114.164062 C 194.429688 114.597656 195.03125 115.09375 195.582031 115.648438 C 196.136719 116.203125 196.628906 116.804688 197.066406 117.457031 C 197.5 118.109375 197.867188 118.796875 198.164062 119.523438 C 198.464844 120.246094 198.691406 120.992188 198.84375 121.761719 C 198.996094 122.53125 199.070312 123.308594 199.070312 124.089844 Z M 199.070312 124.089844 " fill-opacity="1" fill-rule="nonzero"/><g clip-path="url(#f27acebfbe)"><path fill="#1893f8" d="M 196.085938 271.019531 C 197.273438 215.464844 230.625 224.449219 237.78125 199.953125 C 237.78125 199.953125 243.753906 218.460938 231.808594 226.214844 C 231.808594 226.214844 265.773438 208.902344 258.613281 182.601562 C 239.582031 104.394531 328.335938 244.144531 196.085938 271.019531 Z M 196.085938 271.019531 " fill-opacity="1" fill-rule="nonzero"/></g><g clip-path="url(#85c6734b77)"><path fill="#1893f8" d="M 178.242188 271.019531 C 177.054688 215.464844 143.703125 224.449219 136.542969 199.953125 C 136.542969 199.953125 131.183594 218.460938 142.515625 226.214844 C 142.515625 226.214844 109.164062 208.902344 115.714844 182.601562 C 134.746094 104.394531 46.601562 244.144531 178.242188 271.019531 Z M 178.242188 271.019531 " fill-opacity="1" fill-rule="nonzero"/></g><path fill="#1893f8" d="M 205.042969 216.691406 C 205.042969 216.691406 264.007812 143.824219 277.105469 135.453125 C 237.207031 155.765625 234.222656 154.574219 225.875 109.769531 C 227.671875 125.28125 205.042969 216.691406 205.042969 216.691406 Z M 205.042969 216.691406 " fill-opacity="1" fill-rule="nonzero"/><path fill="#1893f8" d="M 256.09375 132.425781 C 256.09375 133.03125 256.035156 133.632812 255.917969 134.226562 C 255.800781 134.820312 255.625 135.398438 255.394531 135.957031 C 255.160156 136.519531 254.878906 137.050781 254.542969 137.554688 C 254.207031 138.058594 253.824219 138.527344 253.398438 138.953125 C 252.96875 139.382812 252.503906 139.765625 252 140.101562 C 251.5 140.441406 250.96875 140.722656 250.410156 140.957031 C 249.851562 141.1875 249.273438 141.363281 248.679688 141.480469 C 248.089844 141.601562 247.488281 141.660156 246.882812 141.660156 C 246.28125 141.660156 245.679688 141.601562 245.085938 141.480469 C 244.496094 141.363281 243.917969 141.1875 243.359375 140.957031 C 242.800781 140.722656 242.269531 140.441406 241.769531 140.101562 C 241.265625 139.765625 240.800781 139.382812 240.371094 138.953125 C 239.945312 138.527344 239.5625 138.058594 239.226562 137.554688 C 238.890625 137.050781 238.605469 136.519531 238.375 135.957031 C 238.144531 135.398438 237.96875 134.820312 237.851562 134.226562 C 237.734375 133.632812 237.675781 133.03125 237.675781 132.425781 C 237.675781 131.816406 237.734375 131.21875 237.851562 130.621094 C 237.96875 130.027344 238.144531 129.449219 238.375 128.890625 C 238.605469 128.328125 238.890625 127.796875 239.226562 127.292969 C 239.5625 126.789062 239.945312 126.324219 240.371094 125.894531 C 240.800781 125.464844 241.265625 125.082031 241.769531 124.746094 C 242.269531 124.410156 242.800781 124.125 243.359375 123.890625 C 243.917969 123.660156 244.496094 123.484375 245.085938 123.367188 C 245.679688 123.25 246.28125 123.1875 246.882812 123.1875 C 247.488281 123.1875 248.089844 123.25 248.679688 123.367188 C 249.273438 123.484375 249.851562 123.660156 250.410156 123.890625 C 250.96875 124.125 251.5 124.410156 252 124.746094 C 252.503906 125.082031 252.96875 125.464844 253.398438 125.894531 C 253.824219 126.324219 254.207031 126.789062 254.542969 127.292969 C 254.878906 127.796875 255.160156 128.328125 255.394531 128.890625 C 255.625 129.449219 255.800781 130.027344 255.917969 130.621094 C 256.035156 131.21875 256.09375 131.816406 256.09375 132.425781 Z M 256.09375 132.425781 " fill-opacity="1" fill-rule="nonzero"/><path fill="#1893f8" d="M 169.28125 216.691406 C 169.28125 216.691406 110.316406 143.824219 97.222656 135.453125 C 137.121094 155.765625 140.105469 154.574219 148.453125 109.769531 C 147.265625 125.28125 169.28125 216.691406 169.28125 216.691406 Z M 169.28125 216.691406 " fill-opacity="1" fill-rule="nonzero"/><path fill="#1893f8" d="M 136.832031 132.425781 C 136.832031 133.03125 136.773438 133.632812 136.65625 134.226562 C 136.535156 134.820312 136.363281 135.398438 136.128906 135.957031 C 135.898438 136.519531 135.617188 137.050781 135.28125 137.554688 C 134.945312 138.058594 134.5625 138.527344 134.132812 138.953125 C 133.707031 139.382812 133.242188 139.765625 132.738281 140.101562 C 132.234375 140.441406 131.707031 140.722656 131.144531 140.957031 C 130.585938 141.1875 130.011719 141.363281 129.417969 141.480469 C 128.824219 141.601562 128.226562 141.660156 127.621094 141.660156 C 127.015625 141.660156 126.417969 141.601562 125.824219 141.480469 C 125.230469 141.363281 124.65625 141.1875 124.097656 140.957031 C 123.539062 140.722656 123.007812 140.441406 122.503906 140.101562 C 122.003906 139.765625 121.535156 139.382812 121.109375 138.953125 C 120.683594 138.527344 120.300781 138.058594 119.964844 137.554688 C 119.628906 137.050781 119.34375 136.519531 119.113281 135.957031 C 118.882812 135.398438 118.707031 134.820312 118.589844 134.226562 C 118.472656 133.632812 118.410156 133.03125 118.410156 132.425781 C 118.410156 131.816406 118.472656 131.21875 118.589844 130.621094 C 118.707031 130.027344 118.882812 129.449219 119.113281 128.890625 C 119.34375 128.328125 119.628906 127.796875 119.964844 127.292969 C 120.300781 126.789062 120.683594 126.324219 121.109375 125.894531 C 121.535156 125.464844 122.003906 125.082031 122.503906 124.746094 C 123.007812 124.410156 123.539062 124.125 124.097656 123.890625 C 124.65625 123.660156 125.230469 123.484375 125.824219 123.367188 C 126.417969 123.25 127.015625 123.1875 127.621094 123.1875 C 128.226562 123.1875 128.824219 123.25 129.417969 123.367188 C 130.011719 123.484375 130.585938 123.660156 131.144531 123.890625 C 131.707031 124.125 132.234375 124.410156 132.738281 124.746094 C 133.242188 125.082031 133.707031 125.464844 134.132812 125.894531 C 134.5625 126.324219 134.945312 126.789062 135.28125 127.292969 C 135.617188 127.796875 135.898438 128.328125 136.128906 128.890625 C 136.363281 129.449219 136.535156 130.027344 136.65625 130.621094 C 136.773438 131.21875 136.832031 131.816406 136.832031 132.425781 Z M 136.832031 132.425781 " fill-opacity="1" fill-rule="nonzero"/><path fill="#1893f8" d="M 182.6875 16.953125 C 168.816406 17.296875 154.816406 19.421875 141.25 23.242188 C 102.226562 34.25 68.28125 58.949219 45.671875 92.785156 C 29.242188 117.378906 19.710938 145.035156 17.386719 174.941406 C 16.988281 180.023438 16.84375 190.21875 17.097656 195.390625 C 19.042969 234.917969 33.457031 270.554688 59.652344 300.605469 C 62.285156 303.632812 71.652344 313.003906 74.679688 315.632812 C 86.425781 325.867188 97.921875 333.632812 111.34375 340.332031 C 139.574219 354.476562 170.761719 360.40625 202.597656 357.703125 C 231.277344 355.269531 259.476562 345.253906 283.402344 329.019531 C 307.5625 312.640625 327.34375 290.101562 340.316406 264.160156 C 350.910156 242.988281 356.746094 221.082031 358.171875 197.15625 C 358.40625 193.210938 358.40625 182.09375 358.171875 178.09375 C 356.1875 144.007812 344.550781 112.117188 324.261719 85.128906 C 318.910156 78.03125 315.054688 73.597656 308.371094 66.914062 C 301.707031 60.265625 297.238281 56.355469 290.246094 51.09375 C 268.359375 34.628906 243.082031 23.765625 216.074219 19.207031 C 205.316406 17.386719 194.6875 16.664062 182.6875 16.953125 Z M 193.859375 23.601562 C 213.785156 24.414062 232.703125 28.539062 250.574219 35.960938 C 295.832031 54.804688 330.605469 93.183594 344.746094 139.898438 C 352.332031 165.015625 353.808594 191.570312 349.054688 217.550781 C 339.902344 267.566406 307.472656 310.839844 261.78125 334.0625 C 244.738281 342.710938 225.964844 348.371094 206.921875 350.585938 C 199.640625 351.449219 196.847656 351.59375 187.644531 351.574219 C 178.167969 351.574219 175.300781 351.433594 167.644531 350.496094 C 134.351562 346.441406 103.378906 332.351562 78.066406 309.757812 C 75.5625 307.527344 67.761719 299.722656 65.527344 297.21875 C 42.554688 271.492188 28.394531 239.964844 24.59375 206.019531 C 23.816406 199.121094 23.691406 196.382812 23.710938 187.191406 C 23.710938 178.347656 23.855469 175.699219 24.609375 168.996094 C 29.671875 124.207031 53.023438 83.488281 89.273438 56.265625 C 103.253906 45.761719 119.144531 37.421875 135.648438 31.90625 C 154.257812 25.691406 174.402344 22.808594 193.859375 23.601562 Z M 193.859375 23.601562 " fill-opacity="1" fill-rule="nonzero"/><path fill="#1893f8" d="M 178.363281 28.664062 C 158.421875 29.90625 139.789062 34.5 121.917969 42.589844 C 83.5625 59.976562 53.402344 92.226562 38.589844 131.703125 C 29.566406 155.773438 26.519531 181.96875 29.746094 207.640625 C 34.898438 248.664062 55.816406 285.921875 88.28125 311.957031 C 126.027344 342.226562 175.519531 353.558594 223.117188 342.839844 C 247.117188 337.414062 269.996094 326.136719 289.167969 310.265625 C 294.570312 305.796875 302.425781 298.210938 306.570312 293.492188 C 318.316406 280.105469 327.308594 265.980469 333.957031 250.484375 C 340.855469 234.359375 344.820312 218.363281 346.40625 200.164062 C 346.800781 195.515625 346.855469 180.816406 346.496094 176.292969 C 344.765625 154.960938 339.792969 136.367188 330.945312 118.1875 C 324.15625 104.28125 315.796875 91.882812 305.632812 80.714844 C 302.929688 77.757812 296.679688 71.527344 293.851562 68.984375 C 280.464844 56.949219 264.035156 46.699219 247.351562 39.980469 C 230.882812 33.367188 214.433594 29.710938 196.472656 28.644531 C 192.886719 28.449219 181.878906 28.449219 178.363281 28.664062 Z M 196.382812 72.789062 C 199.730469 73.058594 204.109375 73.597656 207.300781 74.136719 C 235.351562 78.949219 261.078125 94.40625 278.589844 116.980469 C 298.355469 142.457031 306.480469 174.597656 301.238281 206.488281 C 294.410156 248.070312 264.898438 282.878906 224.847656 296.570312 C 217.027344 299.257812 211.101562 300.570312 201.066406 301.886719 L 194.667969 302.734375 L 187.28125 302.75 C 178.960938 302.769531 176.382812 302.589844 170.078125 301.507812 C 157.988281 299.4375 146.492188 295.742188 136.492188 290.753906 C 110.53125 277.761719 90.480469 255.691406 80.136719 228.722656 C 76.355469 218.882812 73.976562 208.542969 72.929688 197.371094 C 72.570312 193.445312 72.625 180.90625 73.019531 176.921875 C 75.527344 152.3125 84.730469 130.800781 100.785156 112.0625 C 103.054688 109.414062 109.902344 102.605469 112.675781 100.261719 C 130.277344 85.273438 150.707031 76.226562 173.5 73.34375 C 175.914062 73.039062 178.742188 72.804688 183.140625 72.535156 C 185.03125 72.425781 193.859375 72.589844 196.382812 72.789062 Z M 41.796875 173.894531 C 46.105469 180.039062 49.691406 185.101562 49.761719 185.140625 C 49.832031 185.191406 54.5 181.554688 60.121094 177.050781 C 65.742188 172.5625 70.445312 168.832031 70.535156 168.78125 C 70.660156 168.707031 70.605469 169.480469 70.410156 170.796875 C 68.589844 183.535156 68.914062 197.28125 71.363281 210.074219 C 74.210938 224.917969 80.15625 239.601562 88.40625 252.234375 C 101 271.472656 118.800781 286.625 139.738281 295.921875 C 150.511719 300.714844 162.636719 303.996094 174.21875 305.273438 C 183.445312 306.300781 193.839844 306.226562 202.632812 305.109375 C 232.683594 301.253906 260.035156 286.121094 279.277344 262.683594 C 293.796875 244.988281 302.839844 223.515625 305.363281 200.796875 C 306.425781 191.226562 306.300781 180.832031 305.019531 171.445312 C 304.804688 169.988281 304.660156 168.742188 304.695312 168.726562 C 304.734375 168.691406 309.398438 172.382812 315.09375 176.941406 C 320.769531 181.480469 325.46875 185.210938 325.542969 185.210938 C 325.597656 185.191406 329.199219 180.128906 333.558594 173.933594 C 337.902344 167.734375 341.488281 162.707031 341.523438 162.742188 C 341.578125 162.78125 341.757812 163.898438 341.957031 165.230469 C 346.460938 196.523438 341.414062 228.304688 327.453125 256.648438 C 317.472656 276.859375 302.644531 295.257812 284.878906 309.433594 C 261.710938 327.9375 234.035156 339.34375 204.488281 342.566406 C 198.6875 343.199219 196.363281 343.304688 187.644531 343.304688 C 178.652344 343.304688 176.796875 343.214844 170.167969 342.476562 C 127.160156 337.722656 87.9375 314.984375 62.03125 279.835938 C 46.265625 258.449219 36.175781 233.117188 32.988281 206.832031 C 31.546875 195.15625 31.457031 181.984375 32.699219 170.707031 C 33.097656 167.085938 33.746094 162.691406 33.851562 162.707031 C 33.90625 162.707031 37.492188 167.734375 41.796875 173.894531 Z M 41.796875 173.894531 " fill-opacity="1" fill-rule="nonzero"/><path fill="#1893f8" d="M 248.972656 268.574219 C 248.738281 268.863281 248.753906 268.878906 249.042969 268.644531 C 249.207031 268.519531 249.351562 268.375 249.351562 268.339844 C 249.351562 268.195312 249.207031 268.285156 248.972656 268.574219 Z M 248.972656 268.574219 " fill-opacity="1" fill-rule="nonzero"/><path fill="#1893f8" d="M 248.25 269.113281 C 248.015625 269.402344 248.035156 269.421875 248.324219 269.1875 C 248.484375 269.058594 248.628906 268.914062 248.628906 268.878906 C 248.628906 268.734375 248.484375 268.824219 248.25 269.113281 Z M 248.25 269.113281 " fill-opacity="1" fill-rule="nonzero"/><path fill="#1893f8" d="M 246.105469 270.628906 C 245.171875 271.3125 244.324219 271.980469 244.214844 272.085938 C 244 272.339844 243.980469 272.355469 246.25 270.71875 C 247.65625 269.691406 248.089844 269.3125 247.871094 269.347656 C 247.835938 269.367188 247.042969 269.925781 246.105469 270.628906 Z M 246.105469 270.628906 " fill-opacity="1" fill-rule="nonzero"/><path fill="#1893f8" d="M 52.535156 217.894531 C 51.222656 218.453125 50.050781 219.570312 49.402344 220.882812 C 49.003906 221.710938 48.914062 222.109375 48.914062 223.316406 C 48.914062 225.839844 50.085938 227.710938 52.339844 228.757812 C 53.238281 229.171875 53.652344 229.261719 54.859375 229.261719 C 56.644531 229.261719 57.921875 228.703125 59.128906 227.40625 C 61.273438 225.097656 61.21875 221.40625 59.003906 219.171875 C 57.921875 218.109375 56.699219 217.585938 55.039062 217.515625 C 53.816406 217.460938 53.4375 217.515625 52.535156 217.894531 Z M 52.535156 217.894531 " fill-opacity="1" fill-rule="nonzero"/><path fill="#1893f8" d="M 318.769531 217.710938 C 316.121094 218.578125 314.335938 221.261719 314.640625 223.910156 C 314.785156 225.226562 315.652344 226.992188 316.496094 227.746094 C 317.703125 228.792969 318.964844 229.261719 320.605469 229.261719 C 322.335938 229.261719 323.308594 228.863281 324.570312 227.710938 C 325.742188 226.632812 326.316406 225.425781 326.425781 223.839844 C 326.585938 221.351562 325.523438 219.351562 323.417969 218.21875 C 322.441406 217.675781 322.066406 217.570312 320.894531 217.515625 C 320.066406 217.480469 319.21875 217.570312 318.769531 217.710938 Z M 318.769531 217.710938 " fill-opacity="1" fill-rule="nonzero"/><path fill="#1893f8" d="M 66.410156 251.222656 C 64.15625 252.179688 62.878906 253.960938 62.734375 256.375 C 62.679688 257.476562 62.734375 257.925781 63.074219 258.808594 C 63.582031 260.160156 64.894531 261.601562 66.175781 262.160156 C 67.472656 262.734375 69.777344 262.753906 71.023438 262.179688 C 72.28125 261.621094 73.382812 260.503906 73.976562 259.203125 C 74.410156 258.269531 74.5 257.871094 74.480469 256.648438 C 74.480469 254.863281 73.921875 253.546875 72.679688 252.414062 C 71.542969 251.367188 70.464844 250.917969 68.824219 250.84375 C 67.6875 250.792969 67.292969 250.84375 66.410156 251.222656 Z M 66.410156 251.222656 " fill-opacity="1" fill-rule="nonzero"/><path fill="#1893f8" d="M 304.984375 251.027344 C 302.175781 252.089844 300.769531 254.160156 300.914062 257.0625 C 301.023438 259.386719 302.175781 261.132812 304.28125 262.125 C 305.109375 262.503906 305.542969 262.59375 306.734375 262.59375 C 308.011719 262.59375 308.316406 262.519531 309.382812 261.996094 C 311.148438 261.132812 312.15625 259.800781 312.570312 257.78125 C 313.109375 255.1875 311.707031 252.519531 309.183594 251.3125 C 308.136719 250.808594 305.957031 250.664062 304.984375 251.027344 Z M 304.984375 251.027344 " fill-opacity="1" fill-rule="nonzero"/><g fill="#ffffff" fill-opacity="1"><g transform="translate(129.941513, 81.222432)"><g><path d="M -1.015625 -32.3125 C 2.816406 -34.289062 6.675781 -35.082031 10.5625 -34.6875 L 10.734375 -28.328125 C 8.984375 -28.410156 7.210938 -28.300781 5.421875 -28 C 3.640625 -27.707031 2.222656 -27.289062 1.171875 -26.75 C -0.703125 -25.769531 -1.320312 -24.660156 -0.6875 -23.421875 C -0.269531 -22.617188 0.523438 -22.210938 1.703125 -22.203125 C 2.890625 -22.191406 4.234375 -22.351562 5.734375 -22.6875 C 7.242188 -23.03125 8.796875 -23.296875 10.390625 -23.484375 C 11.984375 -23.679688 13.53125 -23.457031 15.03125 -22.8125 C 16.539062 -22.175781 17.738281 -21.003906 18.625 -19.296875 C 19.894531 -16.828125 19.921875 -14.40625 18.703125 -12.03125 C 17.492188 -9.65625 15.398438 -7.695312 12.421875 -6.15625 C 10.304688 -5.0625 8.023438 -4.34375 5.578125 -4 C 3.128906 -3.65625 0.8125 -3.722656 -1.375 -4.203125 L -1.4375 -10.5 C 0.414062 -10.050781 2.40625 -9.921875 4.53125 -10.109375 C 6.664062 -10.304688 8.414062 -10.757812 9.78125 -11.46875 C 10.832031 -12.007812 11.550781 -12.617188 11.9375 -13.296875 C 12.320312 -13.972656 12.328125 -14.675781 11.953125 -15.40625 C 11.585938 -16.125 10.941406 -16.546875 10.015625 -16.671875 C 9.097656 -16.796875 8.078125 -16.71875 6.953125 -16.4375 C 5.835938 -16.15625 4.597656 -15.90625 3.234375 -15.6875 C 1.867188 -15.46875 0.566406 -15.328125 -0.671875 -15.265625 C -1.910156 -15.210938 -3.128906 -15.519531 -4.328125 -16.1875 C -5.523438 -16.851562 -6.492188 -17.894531 -7.234375 -19.3125 C -8.441406 -21.65625 -8.472656 -24.007812 -7.328125 -26.375 C -6.191406 -28.738281 -4.085938 -30.71875 -1.015625 -32.3125 Z M -1.015625 -32.3125 "/></g></g></g><g fill="#ffffff" fill-opacity="1"><g transform="translate(151.94356, 70.312632)"><g><path d="M 9.75 -2.984375 L 2.75 -0.84375 L -5.671875 -28.390625 L 1.328125 -30.53125 Z M 9.75 -2.984375 "/></g></g></g><g fill="#ffffff" fill-opacity="1"><g transform="translate(162.255466, 66.124183)"><g><path d="M -0.09375 -28.953125 L 13.46875 -30.34375 C 16.695312 -30.675781 19.328125 -30.296875 21.359375 -29.203125 C 23.390625 -28.109375 24.515625 -26.46875 24.734375 -24.28125 C 24.890625 -22.769531 24.585938 -21.40625 23.828125 -20.1875 C 23.078125 -18.96875 21.960938 -18.0625 20.484375 -17.46875 C 22.316406 -17.289062 23.832031 -16.597656 25.03125 -15.390625 C 26.226562 -14.191406 26.925781 -12.664062 27.125 -10.8125 C 27.375 -8.394531 26.582031 -6.363281 24.75 -4.71875 C 22.914062 -3.082031 20.300781 -2.085938 16.90625 -1.734375 L 2.859375 -0.296875 Z M 7.75 -24.140625 L 8.359375 -18.25 L 14.25 -18.84375 C 15.3125 -18.957031 16.125 -19.3125 16.6875 -19.90625 C 17.257812 -20.5 17.5 -21.257812 17.40625 -22.1875 C 17.3125 -23.09375 16.925781 -23.769531 16.25 -24.21875 C 15.570312 -24.675781 14.703125 -24.847656 13.640625 -24.734375 Z M 8.890625 -13 L 9.546875 -6.65625 L 15.4375 -7.25 C 16.800781 -7.394531 17.84375 -7.796875 18.5625 -8.453125 C 19.28125 -9.109375 19.585938 -9.9375 19.484375 -10.9375 C 19.378906 -11.894531 18.910156 -12.613281 18.078125 -13.09375 C 17.242188 -13.570312 16.144531 -13.738281 14.78125 -13.59375 Z M 8.890625 -13 "/></g></g></g><g fill="#ffffff" fill-opacity="1"><g transform="translate(188.430407, 62.988365)"><g><path d="M 19.96875 3.328125 L 17.078125 -5.375 L 16.875 -5.40625 L 11.390625 -6.328125 L 10.0625 1.671875 L 2.84375 0.46875 L 7.578125 -27.953125 L 20.28125 -25.828125 C 24.039062 -25.203125 26.804688 -23.859375 28.578125 -21.796875 C 30.359375 -19.734375 30.984375 -17.125 30.453125 -13.96875 C 29.722656 -9.570312 27.492188 -6.8125 23.765625 -5.6875 L 28.1875 4.6875 Z M 12.34375 -12.015625 L 17.828125 -11.09375 C 19.398438 -10.832031 20.6875 -11.019531 21.6875 -11.65625 C 22.6875 -12.300781 23.3125 -13.367188 23.5625 -14.859375 C 23.800781 -16.316406 23.546875 -17.5 22.796875 -18.40625 C 22.054688 -19.3125 20.898438 -19.894531 19.328125 -20.15625 L 13.84375 -21.078125 Z M 12.34375 -12.015625 "/></g></g></g><g fill="#ffffff" fill-opacity="1"><g transform="translate(214.736291, 66.655067)"><g><path d="M 27.515625 -19.015625 C 31.554688 -17.066406 34.304688 -14.191406 35.765625 -10.390625 C 37.222656 -6.597656 37.046875 -2.820312 35.234375 0.9375 C 33.410156 4.71875 30.546875 7.234375 26.640625 8.484375 C 22.734375 9.742188 18.773438 9.40625 14.765625 7.46875 C 10.753906 5.539062 8.023438 2.664062 6.578125 -1.15625 C 5.128906 -4.976562 5.320312 -8.789062 7.15625 -12.59375 C 8.976562 -16.375 11.820312 -18.867188 15.6875 -20.078125 C 19.5625 -21.296875 23.503906 -20.941406 27.515625 -19.015625 Z M 24.953125 -13.453125 C 22.910156 -14.429688 20.816406 -14.523438 18.671875 -13.734375 C 16.535156 -12.953125 14.941406 -11.472656 13.890625 -9.296875 C 12.835938 -7.117188 12.675781 -4.9375 13.40625 -2.75 C 14.132812 -0.5625 15.5 1.015625 17.5 1.984375 C 19.5 2.953125 21.554688 3.023438 23.671875 2.203125 C 25.796875 1.378906 27.382812 -0.117188 28.4375 -2.296875 C 29.488281 -4.472656 29.664062 -6.632812 28.96875 -8.78125 C 28.28125 -10.925781 26.941406 -12.484375 24.953125 -13.453125 Z M 24.953125 -13.453125 "/></g></g></g><g fill="#1893f8" fill-opacity="1"><g transform="translate(92.32025, 298.251914)"><g><path d="M 19.515625 -7.84375 C 20.515625 -7.039062 21.335938 -6.066406 21.984375 -4.921875 C 22.640625 -3.785156 23.039062 -2.597656 23.1875 -1.359375 L 20.40625 -0.71875 C 20.320312 -1.6875 20.054688 -2.613281 19.609375 -3.5 C 19.171875 -4.382812 18.585938 -5.113281 17.859375 -5.6875 C 16.441406 -6.8125 14.851562 -7.273438 13.09375 -7.078125 C 11.34375 -6.878906 9.914062 -6.082031 8.8125 -4.6875 C 7.695312 -3.269531 7.25 -1.691406 7.46875 0.046875 C 7.6875 1.796875 8.503906 3.234375 9.921875 4.359375 C 11.410156 5.535156 13.179688 6.023438 15.234375 5.828125 L 15.40625 8.53125 C 14.101562 8.664062 12.796875 8.554688 11.484375 8.203125 C 10.171875 7.859375 9.015625 7.289062 8.015625 6.5 C 5.929688 4.851562 4.726562 2.769531 4.40625 0.25 C 4.082031 -2.257812 4.734375 -4.539062 6.359375 -6.59375 C 7.953125 -8.625 10.015625 -9.753906 12.546875 -9.984375 C 15.085938 -10.210938 17.410156 -9.5 19.515625 -7.84375 Z M 19.515625 -7.84375 "/></g></g></g><g fill="#1893f8" fill-opacity="1"><g transform="translate(108.057689, 310.654608)"><g><path d="M 10.90625 -11.75 C 13.382812 -12.363281 15.804688 -12 18.171875 -10.65625 C 20.535156 -9.3125 22.085938 -7.414062 22.828125 -4.96875 C 23.566406 -2.53125 23.289062 -0.179688 22 2.078125 C 20.71875 4.335938 18.832031 5.773438 16.34375 6.390625 C 13.863281 7.015625 11.441406 6.65625 9.078125 5.3125 C 6.710938 3.96875 5.164062 2.070312 4.4375 -0.375 C 3.707031 -2.832031 3.984375 -5.191406 5.265625 -7.453125 C 6.554688 -9.710938 8.4375 -11.144531 10.90625 -11.75 Z M 16.84375 -8.25 C 15.269531 -9.144531 13.617188 -9.367188 11.890625 -8.921875 C 10.171875 -8.484375 8.863281 -7.476562 7.96875 -5.90625 C 7.070312 -4.34375 6.875 -2.695312 7.375 -0.96875 C 7.882812 0.75 8.910156 2.050781 10.453125 2.9375 C 12.003906 3.820312 13.640625 4.03125 15.359375 3.5625 C 17.078125 3.101562 18.382812 2.085938 19.28125 0.515625 C 20.175781 -1.046875 20.378906 -2.675781 19.890625 -4.375 C 19.398438 -6.070312 18.382812 -7.363281 16.84375 -8.25 Z M 16.84375 -8.25 "/></g></g></g><g fill="#1893f8" fill-opacity="1"><g transform="translate(128.186246, 321.928666)"><g><path d="M 8.859375 -13.359375 C 11.203125 -14.367188 13.648438 -14.398438 16.203125 -13.453125 C 18.753906 -12.503906 20.59375 -10.882812 21.71875 -8.59375 C 22.84375 -6.300781 22.953125 -3.9375 22.046875 -1.5 C 21.140625 0.9375 19.507812 2.660156 17.15625 3.671875 C 14.8125 4.691406 12.363281 4.726562 9.8125 3.78125 C 7.257812 2.832031 5.421875 1.207031 4.296875 -1.09375 C 3.179688 -3.394531 3.078125 -5.765625 3.984375 -8.203125 C 4.890625 -10.640625 6.515625 -12.359375 8.859375 -13.359375 Z M 15.28125 -10.859375 C 13.59375 -11.484375 11.929688 -11.441406 10.296875 -10.734375 C 8.671875 -10.023438 7.539062 -8.820312 6.90625 -7.125 C 6.28125 -5.4375 6.351562 -3.78125 7.125 -2.15625 C 7.90625 -0.539062 9.128906 0.570312 10.796875 1.1875 C 12.460938 1.8125 14.109375 1.757812 15.734375 1.03125 C 17.359375 0.300781 18.484375 -0.90625 19.109375 -2.59375 C 19.742188 -4.289062 19.679688 -5.9375 18.921875 -7.53125 C 18.160156 -9.132812 16.945312 -10.242188 15.28125 -10.859375 Z M 15.28125 -10.859375 "/></g></g></g><g fill="#1893f8" fill-opacity="1"><g transform="translate(149.778581, 329.647897)"><g><path d="M 6.0625 -17.296875 L 13.15625 -15.8125 C 15.382812 -15.34375 17.003906 -14.453125 18.015625 -13.140625 C 19.023438 -11.828125 19.328125 -10.203125 18.921875 -8.265625 C 18.492188 -6.242188 17.550781 -4.8125 16.09375 -3.96875 C 14.632812 -3.125 12.789062 -2.9375 10.5625 -3.40625 L 6.46875 -4.265625 L 5.34375 1.109375 L 2.34375 0.484375 Z M 8.5 -13.984375 L 7.03125 -6.953125 L 10.984375 -6.125 C 13.847656 -5.519531 15.53125 -6.410156 16.03125 -8.796875 C 16.507812 -11.097656 15.316406 -12.550781 12.453125 -13.15625 Z M 8.5 -13.984375 "/></g></g></g><g fill="#1893f8" fill-opacity="1"><g transform="translate(168.633776, 333.455957)"><g><path d="M 16.4375 -14.265625 L 6.546875 -14.984375 L 6.203125 -10.09375 L 15.0625 -9.453125 L 14.859375 -6.71875 L 6 -7.359375 L 5.640625 -2.359375 L 15.84375 -1.625 L 15.640625 1.125 L 2.390625 0.171875 L 3.703125 -17.953125 L 16.640625 -17.015625 Z M 16.4375 -14.265625 "/></g></g></g><g fill="#1893f8" fill-opacity="1"><g transform="translate(187.435979, 334.751291)"><g><path d="M 13.890625 -0.921875 L 10.203125 -6.1875 C 10.035156 -6.164062 9.765625 -6.144531 9.390625 -6.125 L 5.078125 -5.828125 L 5.4375 -0.359375 L 2.390625 -0.15625 L 1.1875 -18.28125 L 8.546875 -18.78125 C 10.859375 -18.925781 12.6875 -18.503906 14.03125 -17.515625 C 15.382812 -16.535156 16.128906 -15.054688 16.265625 -13.078125 C 16.359375 -11.640625 16.113281 -10.394531 15.53125 -9.34375 C 14.945312 -8.300781 14.066406 -7.503906 12.890625 -6.953125 L 17.375 -1.15625 Z M 4.890625 -8.578125 L 9.203125 -8.875 C 12.128906 -9.0625 13.507812 -10.367188 13.34375 -12.796875 C 13.1875 -15.148438 11.644531 -16.234375 8.71875 -16.046875 L 4.40625 -15.75 Z M 4.890625 -8.578125 "/></g></g></g><g fill="#1893f8" fill-opacity="1"><g transform="translate(208.042335, 333.25098)"><g><path d="M 12.921875 -7.015625 L 3.96875 -5.0625 L 3.140625 -0.6875 L 0.03125 0 L 4.015625 -19.46875 L 7.09375 -20.140625 L 18.703125 -4.0625 L 15.5 -3.359375 Z M 11.203125 -9.421875 L 6.15625 -16.578125 L 4.515625 -7.96875 Z M 11.203125 -9.421875 "/></g></g></g><g fill="#1893f8" fill-opacity="1"><g transform="translate(228.417168, 328.57315)"><g><path d="M 8.6875 -19.515625 L 3.265625 -17.5625 L 8.5 -3.0625 L 5.609375 -2.03125 L 0.375 -16.53125 L -5.015625 -14.578125 L -5.953125 -17.171875 L 7.75 -22.109375 Z M 8.6875 -19.515625 "/></g></g></g><g fill="#1893f8" fill-opacity="1"><g transform="translate(243.742813, 322.807317)"><g><path d="M 4.9375 -2.3125 L 2.171875 -1.015625 L -5.515625 -17.484375 L -2.75 -18.78125 Z M 4.9375 -2.3125 "/></g></g></g><g fill="#1893f8" fill-opacity="1"><g transform="translate(252.251704, 319.037039)"><g><path d="M 9 -5.375 L 6.296875 -3.75 L -9.234375 -15.65625 L -6.390625 -17.34375 L 5.96875 -7.515625 L 3.28125 -23.109375 L 6.03125 -24.75 Z M 9 -5.375 "/></g></g></g><g fill="#1893f8" fill-opacity="1"><g transform="translate(269.090556, 308.82814)"><g><path d="M 2.40625 -21.640625 L -5.34375 -15.46875 L -2.296875 -11.625 L 4.640625 -17.15625 L 6.359375 -15.015625 L -0.578125 -9.484375 L 2.546875 -5.5625 L 10.546875 -11.9375 L 12.265625 -9.78125 L 1.875 -1.484375 L -9.453125 -15.6875 L 0.6875 -23.78125 Z M 2.40625 -21.640625 "/></g></g></g></svg>